HIERARCHY
ROOT Pelvis
{
	OFFSET 0.000000 0.000000 0.000000
	CHANNELS 6 Xposition Yposition Zposition Xrotation Yrotation Zrotation
	JOINT LeftUpLeg_virtual
	{
		OFFSET 0.000000 0.000000 0.000000
		CHANNELS 3 Xrotation Yrotation Zrotation
		JOINT LeftUpLeg
		{
			OFFSET 18.735201 -5.666702 -4.541200
			CHANNELS 3 Xrotation Yrotation Zrotation
			JOINT LeftLeg
			{
				OFFSET -0.021200 -31.938179 0.493100
				CHANNELS 3 Xrotation Yrotation Zrotation
				JOINT LeftFoot
				{
					OFFSET 0.021200 -31.938179 -4.336299
					CHANNELS 3 Xrotation Yrotation Zrotation
					JOINT LeftToeBase
					{
						OFFSET 0.943001 -26.722000 15.023500
						CHANNELS 3 Xrotation Yrotation Zrotation
						End Site
						{
							OFFSET 0 0 0
						}
					}
				}
			}
		}
	}
	JOINT RightUpLeg_virtual
	{
		OFFSET 0.000000 0.000000 0.000000
		CHANNELS 3 Xrotation Yrotation Zrotation
		JOINT RightUpLeg
		{
			OFFSET -18.735201 -5.666702 -4.541200
			CHANNELS 3 Xrotation Yrotation Zrotation
			JOINT RightLeg
			{
				OFFSET 0.018946 -31.938133 0.493100
				CHANNELS 3 Xrotation Yrotation Zrotation
				JOINT RightFoot
				{
					OFFSET -0.018946 -31.938126 -4.336299
					CHANNELS 3 Xrotation Yrotation Zrotation
					JOINT RightToeBase
					{
						OFFSET -0.943001 -26.722004 15.023500
						CHANNELS 3 Xrotation Yrotation Zrotation
						End Site
						{
							OFFSET 0 0 0
						}
					}
				}
			}
		}
	}
	JOINT Hips_virtual
	{
		OFFSET 0.000000 0.000000 0.000000
		CHANNELS 3 Xrotation Yrotation Zrotation
		JOINT Hips
		{
			OFFSET -0.000000 -0.000000 -0.000000
			CHANNELS 3 Xrotation Yrotation Zrotation
			JOINT Spine
			{
				OFFSET 0.000000 10.199997 -0.299500
				CHANNELS 3 Xrotation Yrotation Zrotation
				JOINT Spine1
				{
					OFFSET 0.000000 11.900002 -1.516600
					CHANNELS 3 Xrotation Yrotation Zrotation
					JOINT Spine2
					{
						OFFSET 0.000000 13.600006 -2.842500
						CHANNELS 3 Xrotation Yrotation Zrotation
						JOINT Neck_virtual
						{
							OFFSET 0.000000 0.000000 0.000000
							CHANNELS 3 Xrotation Yrotation Zrotation
							JOINT Neck
							{
								OFFSET 0.000000 9.624100 -2.890100
								CHANNELS 3 Xrotation Yrotation Zrotation
								JOINT Head
								{
									OFFSET 0.000000 14.068802 -1.351900
									CHANNELS 3 Xrotation Yrotation Zrotation
									End Site
									{
										OFFSET 0 0 0
									}
								}
							}
						}
						JOINT LeftShoulder_virtual
						{
							OFFSET 0.000000 0.000000 0.000000
							CHANNELS 3 Xrotation Yrotation Zrotation
							JOINT LeftShoulder
							{
								OFFSET 15.263000 10.923401 -0.547700
								CHANNELS 3 Xrotation Yrotation Zrotation
								JOINT LeftArm
								{
									OFFSET 25.438599 -2.830597 -13.032500
									CHANNELS 3 Xrotation Yrotation Zrotation
									JOINT LeftForeArm
									{
										OFFSET 29.960503 0.000000 0.000000
										CHANNELS 3 Xrotation Yrotation Zrotation
										JOINT LeftHand
										{
											OFFSET 27.849251 0.000000 0.000000
											CHANNELS 3 Xrotation Yrotation Zrotation
											End Site
											{
												OFFSET 0 0 0
											}
										}
									}
								}
							}
						}
						JOINT RightShoulder_virtual
						{
							OFFSET 0.000000 0.000000 0.000000
							CHANNELS 3 Xrotation Yrotation Zrotation
							JOINT RightShoulder
							{
								OFFSET -15.263000 10.923401 -0.547700
								CHANNELS 3 Xrotation Yrotation Zrotation
								JOINT RightArm
								{
									OFFSET -25.438599 -2.830597 -13.032500
									CHANNELS 3 Xrotation Yrotation Zrotation
									JOINT RightForeArm
									{
										OFFSET -29.960503 0.000000 0.000000
										CHANNELS 3 Xrotation Yrotation Zrotation
										JOINT RightHand
										{
											OFFSET -27.849251 0.000000 0.000000
											CHANNELS 3 Xrotation Yrotation Zrotation
											End Site
											{
												OFFSET 0 0 0
											}
										}
									}
								}
							}
						}
					}
				}
			}
		}
	}
}
MOTION
Frames: 9
Frame Time: 0.03333333
2.544601 80.348038 0.546406 0.000000 0.000000 0.000000 18.776246 29.853797 -4.833251 -25.325269 21.275677 20.738956 46.902045 -2.966077 0.679464 -7.630039 -3.260261 -6.416655 0.000000 0.000000 0.000000 -2.059612 52.430619 -2.627413 -35.287018 12.316518 -14.981617 40.060398 11.342915 -0.758138 -14.177693 7.074114 18.224879 0.000000 0.000000 0.000000 1.835964 21.542521 -0.828999 3.796021 46.956147 -6.295672 3.586849 -1.668180 -0.061697 1.578184 -0.615662 -0.657480 0.000000 0.000000 0.000000 1.590330 -1.876270 -0.331800 -1.350604 -1.001697 0.097576 0.000000 0.000000 0.000000 4.005755 -0.916940 -0.224016 0.646509 -9.755299 -4.228349 -23.263775 -39.452914 -60.756076 3.552289 -85.956879 -0.644535 0.000000 0.000000 0.000000 2.686133 -1.266447 0.145458 -0.196300 0.045241 4.772796 -28.135566 15.125012 46.355801 -24.421775 78.609624 22.562372 0.000000 0.000000 0.000000 
2.823646 81.110817 0.568836 0.000000 0.000000 0.000000 19.763120 32.453289 -4.926930 -23.913440 22.075690 21.262119 46.804418 -3.630654 0.987624 -7.632742 -4.039929 -6.514250 0.000000 0.000000 0.000000 -4.036005 56.540268 -0.676917 -36.574580 13.506963 -13.520480 41.579323 12.052102 -1.040721 -13.064226 8.100205 18.444016 0.000000 0.000000 0.000000 0.628644 20.247782 -1.297608 5.188607 43.143406 -5.702388 2.921101 -2.016785 -0.425764 1.300230 -0.562968 -0.478743 0.000000 0.000000 0.000000 1.857573 -2.132668 -0.384563 -1.181012 -1.005726 0.317322 0.000000 0.000000 0.000000 3.470945 -0.934040 -0.310518 1.017936 -8.540932 -4.337372 -25.493140 -40.956328 -62.419849 60.204723 -88.835339 55.800815 0.000000 0.000000 0.000000 2.338871 -1.423575 0.010709 0.041432 -1.176893 5.058789 -27.002292 16.644440 46.049064 -41.936733 82.439762 40.638509 0.000000 0.000000 0.000000 
3.199294 83.501556 0.544077 0.000000 0.000000 0.000000 19.506532 31.763767 -5.032121 -23.058534 21.963672 20.432796 45.354205 -3.610986 0.742633 -8.402656 -3.849929 -6.858668 0.000000 0.000000 0.000000 -4.514800 55.997617 -0.506232 -37.078167 13.388177 -13.593939 41.817826 11.482309 -1.269888 -12.427704 7.925348 17.646332 0.000000 0.000000 0.000000 1.354458 20.453437 -0.774525 1.296244 42.412323 -4.634616 4.161639 -2.313123 -0.889019 1.032393 -0.705794 -0.255871 0.000000 0.000000 0.000000 2.195064 -2.201638 -0.587742 -1.237658 -1.015484 0.237421 0.000000 0.000000 0.000000 3.217787 -0.757082 -0.204324 0.469450 -9.720433 -4.390532 -29.129517 -41.998249 -62.721012 123.590101 -88.456933 119.995618 0.000000 0.000000 0.000000 2.376989 -1.272211 -0.165487 0.345080 -2.122957 4.873497 -26.259443 18.205150 45.690393 -57.746709 84.009005 55.717541 0.000000 0.000000 0.000000 
2.775405 84.990410 0.165831 0.000000 0.000000 0.000000 18.633746 31.177505 -5.209819 -23.672717 21.711898 19.783438 45.989262 -2.913315 0.691145 -7.442854 -3.252487 -6.508223 0.000000 0.000000 0.000000 -5.140990 55.886261 -0.187091 -37.498876 13.445731 -13.422859 42.951853 11.375548 -1.656220 -11.385317 8.237521 17.076846 0.000000 0.000000 0.000000 0.861769 21.668434 -1.199055 4.022247 41.032238 -5.016866 3.125433 -2.364823 -0.857124 1.218773 -0.342011 -0.827674 0.000000 0.000000 0.000000 2.355375 -2.257688 -0.634059 -1.220442 -1.020754 0.271707 0.000000 0.000000 0.000000 4.039762 -0.673184 -0.295331 0.557866 -8.513308 -3.552070 -28.999979 -43.247088 -63.938132 149.461382 -87.616239 145.643197 0.000000 0.000000 0.000000 2.858750 -1.129714 -0.239775 0.255120 -2.229318 5.676741 -25.171066 19.936450 42.927814 -72.051338 85.568712 70.051636 0.000000 0.000000 0.000000 
3.650882 87.098862 -0.248678 0.000000 0.000000 0.000000 18.534577 30.046911 -5.158858 -22.346405 21.477796 18.953551 46.674525 -1.865860 0.763228 -5.872733 -2.419964 -5.677551 0.000000 0.000000 0.000000 -4.903161 56.191850 -0.681442 -37.384976 13.650088 -13.704495 44.370859 11.423604 -2.133650 -9.805127 8.924965 16.502594 0.000000 0.000000 0.000000 2.502582 22.235145 -1.585200 0.989047 36.153537 -2.394268 4.090620 -2.235071 -1.550047 0.804035 -0.468260 -0.767192 0.000000 0.000000 0.000000 2.847399 -2.238042 -0.697652 -1.382342 -0.927010 0.360443 0.000000 0.000000 0.000000 4.262567 -0.518240 -0.250589 0.306197 -6.741302 -3.069705 -29.119405 -43.915992 -62.735199 161.276421 -86.513560 157.849305 0.000000 0.000000 0.000000 2.582759 -1.136384 -0.282470 0.096646 -2.204449 4.676019 -23.418092 19.044041 39.413839 -74.054646 85.486682 71.677303 0.000000 0.000000 0.000000 
4.030802 89.093231 -0.346848 0.000000 0.000000 0.000000 17.451473 28.304789 -5.071362 -23.735449 20.849214 18.583324 49.024782 -1.582435 0.912962 -3.701834 -2.340993 -5.308281 0.000000 0.000000 0.000000 -5.125852 54.653996 0.258769 -37.175907 12.878374 -12.985458 45.601095 10.754163 -2.486035 -8.348977 8.754205 15.525244 0.000000 0.000000 0.000000 0.960302 18.053493 -1.136931 4.310580 35.057141 -4.816325 2.637514 -2.295630 -1.900011 1.310675 -0.048858 -0.973305 0.000000 0.000000 0.000000 2.771018 -2.007027 -0.440710 -0.951856 -1.022867 0.574705 0.000000 0.000000 0.000000 3.507165 -0.566107 -0.491516 0.064747 -7.712607 -2.783311 -28.279007 -45.099732 -61.949474 154.666328 -85.365446 150.805632 0.000000 0.000000 0.000000 2.962955 -0.774274 -0.133964 0.237567 -1.427265 5.193717 -24.198995 24.059386 40.713948 -82.273850 86.533210 81.224753 0.000000 0.000000 0.000000 
3.635569 90.910339 -0.439360 0.000000 0.000000 0.000000 17.420848 26.037965 -4.898059 -23.207453 20.319997 18.092051 50.897176 -1.219241 1.149615 -1.693570 -2.212415 -4.720261 0.000000 0.000000 0.000000 -5.554217 50.724748 0.411185 -37.664060 11.687481 -13.071369 44.737674 9.837177 -2.128347 -8.641978 7.671767 15.224751 0.000000 0.000000 0.000000 1.736917 18.082236 -1.040478 2.838518 33.312694 -5.152294 2.707797 -1.315659 -1.845877 1.946565 -0.384850 -1.015869 0.000000 0.000000 0.000000 3.076284 -1.789349 -0.340924 -0.971808 -1.000420 0.600122 0.000000 0.000000 0.000000 3.284722 -0.194245 -0.303913 -0.083390 -7.574625 -2.008559 -27.437579 -46.276564 -60.517156 162.473863 -83.979239 158.734348 0.000000 0.000000 0.000000 3.144256 -0.410420 -0.114434 0.225042 -1.209328 5.005679 -25.030029 24.790836 38.374291 -66.664279 86.498315 65.058214 0.000000 0.000000 0.000000 
4.319056 92.962433 -0.934158 0.000000 0.000000 0.000000 16.203282 22.839285 -4.446221 -24.410685 19.257486 17.727522 53.565776 -0.899127 1.142487 0.777758 -1.985525 -4.535042 0.000000 0.000000 0.000000 -5.429748 47.212665 0.396394 -37.639567 10.501746 -13.185257 44.152860 8.564060 -2.390371 -8.316420 6.772084 13.663353 0.000000 0.000000 0.000000 2.214592 16.805585 -1.071883 3.452851 34.088887 -4.480287 2.729189 -1.258657 -1.132607 1.363952 -0.316928 -0.970874 0.000000 0.000000 0.000000 2.655725 -1.672293 -0.128954 -1.276528 -1.023156 0.888549 0.000000 0.000000 0.000000 3.218704 -0.324787 -0.376774 -0.585604 -6.597747 -2.027445 -27.621263 -45.627142 -59.438191 164.987809 -82.779386 162.247346 0.000000 0.000000 0.000000 3.458458 -0.171134 -0.015421 -0.346017 -1.425883 6.598542 -25.841307 22.647985 38.339225 -79.072991 85.890483 77.343614 0.000000 0.000000 0.000000 
4.687420 95.378296 -1.298040 0.000000 0.000000 0.000000 15.043596 19.981174 -3.334496 -25.832668 18.114201 18.368761 56.581485 0.091245 1.206290 3.507043 -1.126557 -3.674523 0.000000 0.000000 0.000000 -5.667694 42.598462 0.800229 -37.640462 9.050368 -12.898846 43.170077 7.566672 -1.860866 -8.597906 5.524394 13.646148 0.000000 0.000000 0.000000 3.079374 16.451803 -0.589341 1.330421 31.620740 -3.430373 2.843560 -0.937081 -1.099603 1.574896 -0.115481 -0.703492 0.000000 0.000000 0.000000 2.491620 -1.457575 -0.177203 -1.391541 -1.025817 0.833600 0.000000 0.000000 0.000000 3.252176 -0.000097 -0.166492 -0.330121 -6.224660 -0.866056 -28.497004 -46.153272 -58.831145 167.229942 -81.854517 164.707348 0.000000 0.000000 0.000000 3.377832 0.023293 0.115397 -0.211745 -0.653397 6.703115 -26.951580 23.103598 37.839818 -55.884522 85.110277 53.932700 0.000000 0.000000 0.000000 
